<svg xmlns="http://www.w3.org/2000/svg" viewBox="0 0 400 160" fill="none">
  <rect width="400" height="160" rx="6" fill="#0E0E0C"/>
  <rect x="16" y="10" width="368" height="20" rx="3" fill="#171614"/>
  <text x="26" y="24" font-size="9" fill="#666" font-family="monospace">MAR 2026</text>
  <g>
    <rect x="100" y="12" width="22" height="16" rx="2" fill="#F07800" opacity="0.2"/>
    <text x="106" y="24" font-size="9" fill="#F07800" font-family="monospace" font-weight="600">17</text>
    <rect x="126" y="12" width="22" height="16" rx="2" fill="transparent"/>
    <text x="132" y="24" font-size="9" fill="#444" font-family="monospace">18</text>
    <rect x="152" y="12" width="22" height="16" rx="2" fill="#F0A500" opacity="0.15"/>
    <text x="158" y="24" font-size="9" fill="#F0A500" font-family="monospace" font-weight="600">19</text>
    <rect x="178" y="12" width="22" height="16" rx="2" fill="transparent"/>
    <text x="184" y="24" font-size="9" fill="#444" font-family="monospace">20</text>
    <rect x="204" y="12" width="22" height="16" rx="2" fill="#D4A843" opacity="0.15"/>
    <text x="210" y="24" font-size="9" fill="#D4A843" font-family="monospace" font-weight="600">21</text>
  </g>
  <rect x="16" y="38" width="175" height="50" rx="4" fill="#141210" stroke="#F07800" stroke-width="0.5"/>
  <text x="26" y="55" font-size="9" fill="#F07800" font-family="monospace" font-weight="600">NVDA Earnings</text>
  <text x="26" y="69" font-size="8" fill="#777" font-family="monospace">Q4 FY26 Results</text>
  <text x="26" y="82" font-size="8" fill="#F0A500" font-family="monospace">Mar 19 AMC</text>
  <rect x="200" y="38" width="184" height="50" rx="4" fill="#141210" stroke="#D4A843" stroke-width="0.5"/>
  <text x="210" y="55" font-size="9" fill="#D4A843" font-family="monospace" font-weight="600">NRC Hearing</text>
  <text x="210" y="69" font-size="8" fill="#777" font-family="monospace">SMR License Review</text>
  <text x="210" y="82" font-size="8" fill="#F0A500" font-family="monospace">Mar 21</text>
  <rect x="16" y="96" width="120" height="42" rx="4" fill="#141210" stroke="#C87533" stroke-width="0.5" opacity="0.7"/>
  <text x="26" y="113" font-size="9" fill="#C87533" font-family="monospace" font-weight="500">CEG Earnings</text>
  <text x="26" y="127" font-size="8" fill="#777" font-family="monospace">Mar 24 BMO</text>
  <rect x="144" y="96" width="120" height="42" rx="4" fill="#141210" opacity="0.4"/>
  <rect x="272" y="96" width="112" height="42" rx="4" fill="#141210" opacity="0.25"/>
</svg>