<svg xmlns="http://www.w3.org/2000/svg" viewBox="0 0 400 160" fill="none">
  <rect width="400" height="160" rx="6" fill="#141210"/>
  <rect x="20" y="15" width="160" height="130" rx="4" fill="#1a1816"/>
  <text x="30" y="35" font-size="9" fill="#F07800" font-family="monospace">Exposure Score</text>
  <text x="75" y="80" font-size="32" fill="#F07800" font-family="monospace" text-anchor="middle" font-weight="bold">78</text>
  <text x="75" y="95" font-size="8" fill="#888" font-family="monospace" text-anchor="middle">/ 100</text>
  <circle cx="100" cy="75" r="35" fill="none" stroke="#F07800" stroke-width="3" opacity="0.2"/>
  <circle cx="100" cy="75" r="35" fill="none" stroke="#F07800" stroke-width="3" stroke-dasharray="176" stroke-dashoffset="39" opacity="0.6" transform="rotate(-90 100 75)"/>
  <rect x="200" y="15" width="180" height="130" rx="4" fill="#1a1816"/>
  <text x="210" y="35" font-size="8" fill="#888" font-family="monospace">SECTOR BREAKDOWN</text>
  <rect x="210" y="45" width="130" height="10" rx="2" fill="#F07800" opacity="0.2"/>
  <rect x="210" y="45" width="95" height="10" rx="2" fill="#F07800" opacity="0.5"/>
  <text x="345" y="54" font-size="7" fill="#F07800" font-family="monospace">Compute</text>
  <rect x="210" y="62" width="130" height="10" rx="2" fill="#F0A500" opacity="0.2"/>
  <rect x="210" y="62" width="72" height="10" rx="2" fill="#F0A500" opacity="0.5"/>
  <text x="345" y="71" font-size="7" fill="#F0A500" font-family="monospace">Nuclear</text>
  <rect x="210" y="79" width="130" height="10" rx="2" fill="#D4A843" opacity="0.2"/>
  <rect x="210" y="79" width="55" height="10" rx="2" fill="#D4A843" opacity="0.5"/>
  <text x="345" y="88" font-size="7" fill="#D4A843" font-family="monospace">Grid</text>
  <rect x="210" y="96" width="130" height="10" rx="2" fill="#C87533" opacity="0.2"/>
  <rect x="210" y="96" width="40" height="10" rx="2" fill="#C87533" opacity="0.5"/>
  <text x="345" y="105" font-size="7" fill="#C87533" font-family="monospace">Uranium</text>
  <rect x="210" y="113" width="130" height="10" rx="2" fill="#B8860B" opacity="0.2"/>
  <rect x="210" y="113" width="30" height="10" rx="2" fill="#B8860B" opacity="0.5"/>
  <text x="345" y="122" font-size="7" fill="#B8860B" font-family="monospace">REITs</text>
</svg>